<?xml version="1.0" encoding="UTF-8"?>
<svg width="90px" height="66px" viewBox="0 0 90 66" version="1.1" xmlns="http://www.w3.org/2000/svg" xmlns:xlink="http://www.w3.org/1999/xlink">
    <!-- Generator: Sketch 53.2 (72643) - https://sketchapp.com -->
    <title>noun_DJ Controller_89693</title>
    <desc>Created with Sketch.</desc>
    <g id="Page-1" stroke="none" stroke-width="1" fill="none" fill-rule="evenodd">
        <g id="noun_DJ-Controller_89693" fill="#E8DCD8" fill-rule="nonzero">
            <path d="M17.9257812,65 L15.0361328,65 L15.0361328,54.5371094 L14.9501953,54.5371094 L10.7392578,65 L8.69824219,65 L4.48730469,54.5371094 L4.40136719,54.5371094 L4.40136719,65 L1.51171875,65 L1.51171875,49.4990234 L5.27148438,49.4990234 L9.67578125,60.6279297 L9.76171875,60.6279297 L14.1660156,49.4990234 L17.9257812,49.4990234 L17.9257812,65 Z M31.2734375,62.3144531 L31.2734375,65 L21.0039062,65 L21.0039062,49.4990234 L31.2734375,49.4990234 L31.2734375,52.1738281 L24.2480469,52.1738281 L24.2480469,55.9121094 L30.8759766,55.9121094 L30.8759766,58.4042969 L24.2480469,58.4042969 L24.2480469,62.3144531 L31.2734375,62.3144531 Z M50.5292969,65 L47.6396484,65 L47.6396484,54.5371094 L47.5537109,54.5371094 L43.3427734,65 L41.3017578,65 L37.0908203,54.5371094 L37.0048828,54.5371094 L37.0048828,65 L34.1152344,65 L34.1152344,49.4990234 L37.875,49.4990234 L42.2792969,60.6279297 L42.3652344,60.6279297 L46.7695312,49.4990234 L50.5292969,49.4990234 L50.5292969,65 Z M60.6005859,49.2304688 C65.1875,49.2304688 68.0771484,52.3134766 68.0771484,57.2548828 C68.0771484,62.1855469 65.1875,65.2685547 60.6005859,65.2685547 C56.0029297,65.2685547 53.1240234,62.1855469 53.1240234,57.2548828 C53.1240234,52.3134766 56.0029297,49.2304688 60.6005859,49.2304688 Z M60.6005859,51.9375 C58.0654297,51.9375 56.4326172,54 56.4326172,57.2548828 C56.4326172,60.4990234 58.0546875,62.5507812 60.6005859,62.5507812 C63.1357422,62.5507812 64.7578125,60.4990234 64.7578125,57.2548828 C64.7578125,54 63.1357422,51.9375 60.6005859,51.9375 Z M73.9052734,65 L70.6611328,65 L70.6611328,49.4990234 L73.9052734,49.4990234 L73.9052734,65 Z M80.2275391,52.0341797 L80.2275391,56.9755859 L83.0205078,56.9755859 C84.6533203,56.9755859 85.609375,56.0410156 85.609375,54.5048828 C85.609375,53.0009766 84.5996094,52.0341797 82.9882812,52.0341797 L80.2275391,52.0341797 Z M80.2275391,59.328125 L80.2275391,65 L76.9833984,65 L76.9833984,49.4990234 L83.3320312,49.4990234 C86.8984375,49.4990234 88.9394531,51.3789062 88.9394531,54.4404297 C88.9394531,56.4277344 87.9082031,58.1464844 86.125,58.8447266 L89.390625,65 L85.7167969,65 L82.8271484,59.328125 L80.2275391,59.328125 Z" id="MEMOIR"></path>
            <path d="M89.05,0.314 L57.553,0.314 C57.029,0.314 56.605,0.699 56.605,1.172 L56.605,44.826 C56.605,45.3 57.029,45.684 57.553,45.684 L89.05,45.684 C89.574,45.684 90,45.299 90,44.826 L90,1.173 C90,0.699 89.574,0.314 89.05,0.314 Z M84.748,2.385 C86.198,2.385 87.373,3.562 87.373,5.013 C87.373,6.462 86.198,7.638 84.748,7.638 C83.296,7.638 82.12,6.461 82.12,5.013 C82.12,3.562 83.296,2.385 84.748,2.385 Z M77.224,2.385 C78.676,2.385 79.852,3.562 79.852,5.013 C79.852,6.462 78.676,7.638 77.224,7.638 C75.776,7.638 74.598,6.461 74.598,5.013 C74.598,3.562 75.775,2.385 77.224,2.385 Z M69.379,2.385 C70.829,2.385 72.004,3.562 72.004,5.013 C72.004,6.462 70.829,7.638 69.379,7.638 C67.929,7.638 66.751,6.461 66.751,5.013 C66.751,3.562 67.929,2.385 69.379,2.385 Z M61.855,2.385 C63.306,2.385 64.482,3.562 64.482,5.013 C64.482,6.462 63.306,7.638 61.855,7.638 C60.405,7.638 59.228,6.461 59.228,5.013 C59.229,3.562 60.405,2.385 61.855,2.385 Z M64.176,43.32 C64.176,43.384 64.11,43.438 64.026,43.438 L58.667,43.438 C58.585,43.438 58.518,43.384 58.518,43.32 L58.518,40.208 C58.518,40.144 58.585,40.09 58.667,40.09 L64.026,40.09 C64.11,40.09 64.176,40.144 64.176,40.208 L64.176,43.32 Z M64.176,38.005 C64.176,38.071 64.11,38.124 64.026,38.124 L58.667,38.124 C58.585,38.124 58.518,38.071 58.518,38.005 L58.518,34.893 C58.518,34.829 58.585,34.775 58.667,34.775 L64.026,34.775 C64.11,34.775 64.176,34.829 64.176,34.893 L64.176,38.005 Z M71.63,43.32 C71.63,43.384 71.562,43.438 71.481,43.438 L66.12,43.438 C66.037,43.438 65.971,43.384 65.971,43.32 L65.971,40.208 C65.971,40.144 66.037,40.09 66.12,40.09 L71.481,40.09 C71.562,40.09 71.63,40.144 71.63,40.208 L71.63,43.32 Z M79.365,43.32 C79.365,43.384 79.299,43.438 79.216,43.438 L73.857,43.438 C73.772,43.438 73.705,43.384 73.705,43.32 L73.705,40.208 C73.705,40.144 73.772,40.09 73.857,40.09 L79.216,40.09 C79.299,40.09 79.365,40.144 79.365,40.208 L79.365,43.32 Z M73.221,32.629 C66.812,32.629 61.617,27.434 61.617,21.025 C61.617,14.616 66.812,9.421 73.221,9.421 C79.629,9.421 84.825,14.616 84.825,21.025 C84.824,27.434 79.629,32.629 73.221,32.629 Z M87.234,28.319 L87.234,34.436 C87.234,34.531 87.205,34.607 87.169,34.607 L85.46,34.607 C85.425,34.607 85.397,34.531 85.397,34.436 L85.397,28.319 C85.397,28.226 85.425,28.148 85.46,28.148 L87.169,28.148 C87.205,28.148 87.234,28.227 87.234,28.319 Z M87.234,43.309 C87.234,43.38 87.205,43.439 87.169,43.439 L85.46,43.439 C85.425,43.439 85.397,43.38 85.397,43.309 L85.397,38.663 C85.397,38.592 85.425,38.533 85.46,38.533 L87.169,38.533 C87.205,38.533 87.234,38.592 87.234,38.663 L87.234,43.309 Z M88.768,37.743 C88.768,37.784 88.709,37.817 88.638,37.817 L83.992,37.817 C83.92,37.817 83.861,37.784 83.861,37.743 L83.861,35.806 C83.861,35.765 83.92,35.732 83.992,35.732 L88.638,35.732 C88.709,35.732 88.768,35.765 88.768,35.806 L88.768,37.743 Z M77.749,21.025 C77.749,23.525 75.721,25.554 73.221,25.554 C70.721,25.554 68.693,23.525 68.693,21.025 C68.693,18.524 70.721,16.497 73.221,16.497 C75.721,16.497 77.749,18.524 77.749,21.025 Z M0,1.173 L0,44.827 C0,45.301 0.426,45.685 0.95,45.685 L32.446,45.685 C32.971,45.685 33.396,45.3 33.396,44.827 L33.396,1.173 C33.396,0.699 32.971,0.315 32.446,0.315 L0.95,0.315 C0.426,0.314 0,0.699 0,1.173 Z M7.878,5.013 C7.878,6.462 6.703,7.638 5.253,7.638 C3.803,7.638 2.627,6.461 2.627,5.013 C2.627,3.562 3.804,2.385 5.253,2.385 C6.703,2.385 7.878,3.562 7.878,5.013 Z M2.83,28.148 L4.54,28.148 C4.575,28.148 4.604,28.226 4.604,28.319 L4.604,34.436 C4.604,34.531 4.575,34.607 4.54,34.607 L2.83,34.607 C2.794,34.607 2.765,34.531 2.765,34.436 L2.765,28.319 C2.765,28.227 2.794,28.148 2.83,28.148 Z M15.401,5.013 C15.401,6.462 14.226,7.638 12.775,7.638 C11.325,7.638 10.15,6.461 10.15,5.013 C10.15,3.562 11.326,2.385 12.775,2.385 C14.226,2.385 15.401,3.562 15.401,5.013 Z M23.249,5.013 C23.249,6.462 22.073,7.638 20.623,7.638 C19.173,7.638 17.996,6.461 17.996,5.013 C17.996,3.562 19.173,2.385 20.623,2.385 C22.073,2.385 23.249,3.562 23.249,5.013 Z M30.771,5.013 C30.771,6.462 29.595,7.638 28.145,7.638 C26.694,7.638 25.52,6.461 25.52,5.013 C25.52,3.562 26.694,2.385 28.145,2.385 C29.595,2.385 30.771,3.562 30.771,5.013 Z M25.823,40.208 C25.823,40.144 25.89,40.09 25.973,40.09 L31.333,40.09 C31.416,40.09 31.483,40.144 31.483,40.208 L31.483,43.32 C31.483,43.384 31.417,43.438 31.333,43.438 L25.973,43.438 C25.89,43.438 25.823,43.384 25.823,43.32 L25.823,40.208 Z M25.823,34.893 C25.823,34.829 25.89,34.775 25.973,34.775 L31.333,34.775 C31.416,34.775 31.483,34.829 31.483,34.893 L31.483,38.005 C31.483,38.071 31.417,38.124 31.333,38.124 L25.973,38.124 C25.89,38.124 25.823,38.071 25.823,38.005 L25.823,34.893 Z M18.371,40.208 C18.371,40.144 18.437,40.09 18.52,40.09 L23.88,40.09 C23.962,40.09 24.029,40.144 24.029,40.208 L24.029,43.32 C24.029,43.384 23.962,43.438 23.88,43.438 L18.52,43.438 C18.437,43.438 18.371,43.384 18.371,43.32 L18.371,40.208 Z M10.635,40.208 C10.635,40.144 10.702,40.09 10.786,40.09 L16.145,40.09 C16.228,40.09 16.296,40.144 16.296,40.208 L16.296,43.32 C16.296,43.384 16.229,43.438 16.145,43.438 L10.786,43.438 C10.702,43.438 10.635,43.384 10.635,43.32 L10.635,40.208 Z M5.177,21.025 C5.177,14.616 10.371,9.421 16.78,9.421 C23.189,9.421 28.384,14.616 28.384,21.025 C28.384,27.433 23.189,32.629 16.78,32.629 C10.371,32.629 5.177,27.434 5.177,21.025 Z M2.765,38.662 C2.765,38.591 2.794,38.532 2.83,38.532 L4.54,38.532 C4.575,38.532 4.604,38.591 4.604,38.662 L4.604,43.308 C4.604,43.379 4.575,43.438 4.54,43.438 L2.83,43.438 C2.794,43.438 2.765,43.379 2.765,43.308 L2.765,38.662 Z M1.231,35.807 C1.231,35.766 1.29,35.733 1.361,35.733 L6.007,35.733 C6.078,35.733 6.137,35.766 6.137,35.807 L6.137,37.744 C6.137,37.785 6.078,37.818 6.007,37.818 L1.362,37.818 C1.29,37.818 1.232,37.785 1.232,37.744 L1.232,35.807 L1.231,35.807 Z M16.78,16.498 C19.282,16.498 21.309,18.525 21.309,21.026 C21.309,23.526 19.282,25.555 16.78,25.555 C14.279,25.555 12.25,23.526 12.25,21.026 C12.25,18.524 14.279,16.498 16.78,16.498 Z M47.453,9.083 C47.453,10.438 46.354,11.536 45,11.536 C43.646,11.536 42.548,10.438 42.548,9.083 C42.548,7.728 43.645,6.631 45,6.631 C46.355,6.631 47.453,7.728 47.453,9.083 Z M53.72,0.314 L36.28,0.314 C35.99,0.314 35.756,0.699 35.756,1.172 L35.756,44.826 C35.756,45.3 35.99,45.684 36.28,45.684 L53.72,45.684 C54.01,45.684 54.245,45.299 54.245,44.826 L54.245,1.173 C54.245,0.699 54.01,0.314 53.72,0.314 Z M49.881,28.131 L49.881,34.248 C49.881,34.343 49.852,34.419 49.816,34.419 L48.109,34.419 C48.073,34.419 48.044,34.343 48.044,34.248 L48.044,28.131 C48.044,28.037 48.073,27.96 48.109,27.96 L49.816,27.96 C49.852,27.96 49.881,28.037 49.881,28.131 Z M41.604,4.554 L48.396,4.554 L48.396,13.611 L41.604,13.611 L41.604,4.554 Z M41.604,15.499 L48.396,15.499 L48.396,24.554 L41.604,24.554 L41.604,15.499 Z M40.118,28.131 C40.118,28.037 40.147,27.96 40.183,27.96 L41.891,27.96 C41.928,27.96 41.956,28.037 41.956,28.131 L41.956,34.248 C41.956,34.343 41.927,34.419 41.891,34.419 L40.183,34.419 C40.146,34.419 40.118,34.343 40.118,34.248 L40.118,28.131 Z M41.958,43.119 C41.958,43.191 41.929,43.249 41.893,43.249 L40.185,43.249 C40.148,43.249 40.12,43.191 40.12,43.119 L40.12,38.473 C40.12,38.401 40.149,38.343 40.185,38.343 L41.893,38.343 C41.93,38.343 41.958,38.401 41.958,38.473 L41.958,43.119 Z M43.491,37.556 C43.491,37.595 43.433,37.628 43.361,37.628 L38.715,37.628 C38.643,37.628 38.585,37.595 38.585,37.556 L38.585,35.618 C38.585,35.577 38.643,35.544 38.715,35.544 L43.361,35.544 C43.433,35.544 43.491,35.577 43.491,35.618 L43.491,37.556 Z M49.881,43.119 C49.881,43.191 49.852,43.249 49.816,43.249 L48.109,43.249 C48.073,43.249 48.044,43.191 48.044,43.119 L48.044,38.473 C48.044,38.401 48.073,38.343 48.109,38.343 L49.816,38.343 C49.852,38.343 49.881,38.401 49.881,38.473 L49.881,43.119 Z M51.416,37.556 C51.416,37.595 51.357,37.628 51.284,37.628 L46.64,37.628 C46.568,37.628 46.507,37.595 46.507,37.556 L46.507,35.618 C46.507,35.577 46.568,35.544 46.64,35.544 L51.284,35.544 C51.357,35.544 51.416,35.577 51.416,35.618 L51.416,37.556 Z M47.453,20.025 C47.453,21.38 46.354,22.478 45,22.478 C43.646,22.478 42.548,21.381 42.548,20.025 C42.548,18.671 43.645,17.574 45,17.574 C46.355,17.574 47.453,18.671 47.453,20.025 Z" id="Shape"></path>
        </g>
    </g>
</svg>