<?xml version="1.0" encoding="UTF-8"?>
<svg width="90px" height="46px" viewBox="0 0 90 46" version="1.1" xmlns="http://www.w3.org/2000/svg" xmlns:xlink="http://www.w3.org/1999/xlink">
    <g id="page" stroke="none" stroke-width="1" fill="none" fill-rule="evenodd">
        <g id="header" fill="#374151" fill-rule="nonzero">
            <path d="M89.05,0.314 L57.553,0.314 C57.029,0.314 56.605,0.699 56.605,1.172 L56.605,44.826 C56.605,45.3 57.029,45.684 57.553,45.684 L89.05,45.684 C89.574,45.684 90,45.299 90,44.826 L90,1.173 C90,0.699 89.574,0.314 89.05,0.314 Z M84.748,2.385 C86.198,2.385 87.373,3.562 87.373,5.013 C87.373,6.462 86.198,7.638 84.748,7.638 C83.296,7.638 82.12,6.461 82.12,5.013 C82.12,3.562 83.296,2.385 84.748,2.385 Z M77.224,2.385 C78.676,2.385 79.852,3.562 79.852,5.013 C79.852,6.462 78.676,7.638 77.224,7.638 C75.776,7.638 74.598,6.461 74.598,5.013 C74.598,3.562 75.775,2.385 77.224,2.385 Z M69.379,2.385 C70.829,2.385 72.004,3.562 72.004,5.013 C72.004,6.462 70.829,7.638 69.379,7.638 C67.929,7.638 66.751,6.461 66.751,5.013 C66.751,3.562 67.929,2.385 69.379,2.385 Z M61.855,2.385 C63.306,2.385 64.482,3.562 64.482,5.013 C64.482,6.462 63.306,7.638 61.855,7.638 C60.405,7.638 59.228,6.461 59.228,5.013 C59.229,3.562 60.405,2.385 61.855,2.385 Z M64.176,43.32 C64.176,43.384 64.11,43.438 64.026,43.438 L58.667,43.438 C58.585,43.438 58.518,43.384 58.518,43.32 L58.518,40.208 C58.518,40.144 58.585,40.09 58.667,40.09 L64.026,40.09 C64.11,40.09 64.176,40.144 64.176,40.208 L64.176,43.32 Z M64.176,38.005 C64.176,38.071 64.11,38.124 64.026,38.124 L58.667,38.124 C58.585,38.124 58.518,38.071 58.518,38.005 L58.518,34.893 C58.518,34.829 58.585,34.775 58.667,34.775 L64.026,34.775 C64.11,34.775 64.176,34.829 64.176,34.893 L64.176,38.005 Z M71.63,43.32 C71.63,43.384 71.562,43.438 71.481,43.438 L66.12,43.438 C66.037,43.438 65.971,43.384 65.971,43.32 L65.971,40.208 C65.971,40.144 66.037,40.09 66.12,40.09 L71.481,40.09 C71.562,40.09 71.63,40.144 71.63,40.208 L71.63,43.32 Z M79.365,43.32 C79.365,43.384 79.299,43.438 79.216,43.438 L73.857,43.438 C73.772,43.438 73.705,43.384 73.705,43.32 L73.705,40.208 C73.705,40.144 73.772,40.09 73.857,40.09 L79.216,40.09 C79.299,40.09 79.365,40.144 79.365,40.208 L79.365,43.32 Z M73.221,32.629 C66.812,32.629 61.617,27.434 61.617,21.025 C61.617,14.616 66.812,9.421 73.221,9.421 C79.629,9.421 84.825,14.616 84.825,21.025 C84.824,27.434 79.629,32.629 73.221,32.629 Z M87.234,28.319 L87.234,34.436 C87.234,34.531 87.205,34.607 87.169,34.607 L85.46,34.607 C85.425,34.607 85.397,34.531 85.397,34.436 L85.397,28.319 C85.397,28.226 85.425,28.148 85.46,28.148 L87.169,28.148 C87.205,28.148 87.234,28.227 87.234,28.319 Z M87.234,43.309 C87.234,43.38 87.205,43.439 87.169,43.439 L85.46,43.439 C85.425,43.439 85.397,43.38 85.397,43.309 L85.397,38.663 C85.397,38.592 85.425,38.533 85.46,38.533 L87.169,38.533 C87.205,38.533 87.234,38.592 87.234,38.663 L87.234,43.309 Z M88.768,37.743 C88.768,37.784 88.709,37.817 88.638,37.817 L83.992,37.817 C83.92,37.817 83.861,37.784 83.861,37.743 L83.861,35.806 C83.861,35.765 83.92,35.732 83.992,35.732 L88.638,35.732 C88.709,35.732 88.768,35.765 88.768,35.806 L88.768,37.743 Z M77.749,21.025 C77.749,23.525 75.721,25.554 73.221,25.554 C70.721,25.554 68.693,23.525 68.693,21.025 C68.693,18.524 70.721,16.497 73.221,16.497 C75.721,16.497 77.749,18.524 77.749,21.025 Z M32.445,3.55271368e-15 L0.948,3.55271368e-15 C0.424,3.55271368e-15 0,0.385 0,0.858 L0,44.512 C0,44.986 0.424,45.37 0.948,45.37 L32.445,45.37 C32.969,45.37 33.395,44.985 33.395,44.512 L33.395,0.859 C33.395,0.385 32.969,3.55271368e-15 32.445,3.55271368e-15 Z M28.143,2.071 C29.593,2.071 30.768,3.248 30.768,4.699 C30.768,6.148 29.593,7.324 28.143,7.324 C26.691,7.324 25.515,6.147 25.515,4.699 C25.515,3.248 26.691,2.071 28.143,2.071 Z M20.619,2.071 C22.071,2.071 23.247,3.248 23.247,4.699 C23.247,6.148 22.071,7.324 20.619,7.324 C19.171,7.324 17.993,6.147 17.993,4.699 C17.993,3.248 19.17,2.071 20.619,2.071 Z M12.774,2.071 C14.224,2.071 15.399,3.248 15.399,4.699 C15.399,6.148 14.224,7.324 12.774,7.324 C11.324,7.324 10.146,6.147 10.146,4.699 C10.146,3.248 11.324,2.071 12.774,2.071 Z M5.25,2.071 C6.701,2.071 7.877,3.248 7.877,4.699 C7.877,6.148 6.701,7.324 5.25,7.324 C3.8,7.324 2.623,6.147 2.623,4.699 C2.624,3.248 3.8,2.071 5.25,2.071 Z M7.571,43.006 C7.571,43.07 7.505,43.124 7.421,43.124 L2.062,43.124 C1.98,43.124 1.913,43.07 1.913,43.006 L1.913,39.894 C1.913,39.83 1.98,39.776 2.062,39.776 L7.421,39.776 C7.505,39.776 7.571,39.83 7.571,39.894 L7.571,43.006 Z M7.571,37.691 C7.571,37.757 7.505,37.81 7.421,37.81 L2.062,37.81 C1.98,37.81 1.913,37.757 1.913,37.691 L1.913,34.579 C1.913,34.515 1.98,34.461 2.062,34.461 L7.421,34.461 C7.505,34.461 7.571,34.515 7.571,34.579 L7.571,37.691 Z M15.025,43.006 C15.025,43.07 14.957,43.124 14.876,43.124 L9.515,43.124 C9.432,43.124 9.366,43.07 9.366,43.006 L9.366,39.894 C9.366,39.83 9.432,39.776 9.515,39.776 L14.876,39.776 C14.957,39.776 15.025,39.83 15.025,39.894 L15.025,43.006 Z M22.76,43.006 C22.76,43.07 22.694,43.124 22.611,43.124 L17.252,43.124 C17.167,43.124 17.1,43.07 17.1,43.006 L17.1,39.894 C17.1,39.83 17.167,39.776 17.252,39.776 L22.611,39.776 C22.694,39.776 22.76,39.83 22.76,39.894 L22.76,43.006 Z M16.616,32.315 C10.207,32.315 5.012,27.12 5.012,20.711 C5.012,14.302 10.207,9.107 16.616,9.107 C23.024,9.107 28.22,14.302 28.22,20.711 C28.219,27.12 23.024,32.315 16.616,32.315 Z M30.629,28.005 L30.629,34.122 C30.629,34.217 30.6,34.293 30.564,34.293 L28.855,34.293 C28.82,34.293 28.792,34.217 28.792,34.122 L28.792,28.005 C28.792,27.912 28.82,27.834 28.855,27.834 L30.564,27.834 C30.6,27.834 30.629,27.913 30.629,28.005 Z M30.629,42.995 C30.629,43.066 30.6,43.125 30.564,43.125 L28.855,43.125 C28.82,43.125 28.792,43.066 28.792,42.995 L28.792,38.349 C28.792,38.278 28.82,38.219 28.855,38.219 L30.564,38.219 C30.6,38.219 30.629,38.278 30.629,38.349 L30.629,42.995 Z M32.163,37.429 C32.163,37.47 32.104,37.503 32.033,37.503 L27.387,37.503 C27.315,37.503 27.256,37.47 27.256,37.429 L27.256,35.492 C27.256,35.451 27.315,35.418 27.387,35.418 L32.033,35.418 C32.104,35.418 32.163,35.451 32.163,35.492 L32.163,37.429 Z M21.144,20.711 C21.144,23.211 19.116,25.24 16.616,25.24 C14.116,25.24 12.088,23.211 12.088,20.711 C12.088,18.21 14.116,16.183 16.616,16.183 C19.116,16.183 21.144,18.21 21.144,20.711 Z M47.453,9.083 C47.453,10.438 46.354,11.536 45,11.536 C43.646,11.536 42.548,10.438 42.548,9.083 C42.548,7.728 43.645,6.631 45,6.631 C46.355,6.631 47.453,7.728 47.453,9.083 Z M53.72,0.314 L36.28,0.314 C35.99,0.314 35.756,0.699 35.756,1.172 L35.756,44.826 C35.756,45.3 35.99,45.684 36.28,45.684 L53.72,45.684 C54.01,45.684 54.245,45.299 54.245,44.826 L54.245,1.173 C54.245,0.699 54.01,0.314 53.72,0.314 Z M49.881,28.131 L49.881,34.248 C49.881,34.343 49.852,34.419 49.816,34.419 L48.109,34.419 C48.073,34.419 48.044,34.343 48.044,34.248 L48.044,28.131 C48.044,28.037 48.073,27.96 48.109,27.96 L49.816,27.96 C49.852,27.96 49.881,28.037 49.881,28.131 Z M41.604,4.554 L48.396,4.554 L48.396,13.611 L41.604,13.611 L41.604,4.554 Z M41.604,15.499 L48.396,15.499 L48.396,24.554 L41.604,24.554 L41.604,15.499 Z M40.118,28.131 C40.118,28.037 40.147,27.96 40.183,27.96 L41.891,27.96 C41.928,27.96 41.956,28.037 41.956,28.131 L41.956,34.248 C41.956,34.343 41.927,34.419 41.891,34.419 L40.183,34.419 C40.146,34.419 40.118,34.343 40.118,34.248 L40.118,28.131 Z M41.958,43.119 C41.958,43.191 41.929,43.249 41.893,43.249 L40.185,43.249 C40.148,43.249 40.12,43.191 40.12,43.119 L40.12,38.473 C40.12,38.401 40.149,38.343 40.185,38.343 L41.893,38.343 C41.93,38.343 41.958,38.401 41.958,38.473 L41.958,43.119 Z M43.491,37.556 C43.491,37.595 43.433,37.628 43.361,37.628 L38.715,37.628 C38.643,37.628 38.585,37.595 38.585,37.556 L38.585,35.618 C38.585,35.577 38.643,35.544 38.715,35.544 L43.361,35.544 C43.433,35.544 43.491,35.577 43.491,35.618 L43.491,37.556 Z M49.881,43.119 C49.881,43.191 49.852,43.249 49.816,43.249 L48.109,43.249 C48.073,43.249 48.044,43.191 48.044,43.119 L48.044,38.473 C48.044,38.401 48.073,38.343 48.109,38.343 L49.816,38.343 C49.852,38.343 49.881,38.401 49.881,38.473 L49.881,43.119 Z M51.416,37.556 C51.416,37.595 51.357,37.628 51.284,37.628 L46.64,37.628 C46.568,37.628 46.507,37.595 46.507,37.556 L46.507,35.618 C46.507,35.577 46.568,35.544 46.64,35.544 L51.284,35.544 C51.357,35.544 51.416,35.577 51.416,35.618 L51.416,37.556 Z M47.453,20.025 C47.453,21.38 46.354,22.478 45,22.478 C43.646,22.478 42.548,21.381 42.548,20.025 C42.548,18.671 43.645,17.574 45,17.574 C46.355,17.574 47.453,18.671 47.453,20.025 Z" id="Shape"></path>
        </g>
    </g>
</svg>
